<svg xmlns="http://www.w3.org/2000/svg" version="1.1" xmlns:xlink="http://www.w3.org/1999/xlink" xmlns:svgjs="http://svgjs.com/svgjs" width="512" height="512" x="0" y="0" viewBox="0 0 510.425 510.425" style="enable-background:new 0 0 512 512" xml:space="preserve" className=""><g><g xmlns="http://www.w3.org/2000/svg"><path d="m398.675 408.052c39.846 0 75.572-25.035 88.671-62.667.08-.228.159-.457.238-.686 8.626-25.021 13.348-51.925 13.348-79.996 0-108.567-70.415-200.679-168.062-233.184-25.131-8.369-51.439-12.537-77.659-12.537-64.851 0-124.054 25.21-168.097 66.502v322.568z" fill="#ffc305" data-original="#ffc305" className=""></path><path d="m72.842 429.387.008.001c5.332 5.901 16.514 16.627 17.828 17.813h.02c5.329 4.807 312.437 13.696 312.437 13.696.646-.485 1.292-.969 1.932-1.462l.03.003c37.392-28.801 66.574-68.567 82.481-114.74-.959.762-1.91 1.536-2.881 2.284l-.03-.003c-8.989 6.927-18.474 13.238-28.387 18.887h.016c-.148.084-2.548 1.435-2.678 1.506h-.013c-73.792 40.848-163.871 40.788-237.572 0h-.029c-.118-.065-2.509-1.419-2.663-1.506h.033c-15.488-8.822-29.929-19.263-43.076-31.121h-.02c-1.314-1.186-.959-.866-1.021-.922h.025c-5.875-5.359-11.499-10.99-16.831-16.89l-.008-.001c-61.743-68.292-78.191-162.761-50.072-244.622-56.421 44.845-92.779 114.015-92.878 192.077-.001.488.008.979.011 1.467.29 63.066 24.259 120.309 63.338 163.533z" fill="#ffa10b" data-original="#ffa10b"></path><path d="m90.678 447.2h312.279c-4.259-12.6-14.755-24.23-29.975-34.175h-280.768c-7.733 5.052-14.269 10.53-19.368 16.358 5.636 6.238 11.589 12.185 17.832 17.817z" fill="#05cdff" data-original="#05cdff"></path><path d="m133.74 478.322c35.828 20.42 77.28 32.104 121.47 32.104 44.194 0 85.656-11.678 121.485-32.104z" fill="#05cdff" data-original="#05cdff"></path><path d="m89.701 414.684h285.757c-24.368-16.793-61.936-29.058-105.737-33.55h-74.283c-43.801 4.492-81.369 16.757-105.737 33.55z" fill="#ffffff" data-original="#ffffff" className=""></path><path d="m136.404 479.828h237.614c10.889-6.026 21.269-12.855 31.066-20.407-.054-4.477-.892-8.867-2.446-13.143h-312.982c14.163 12.921 29.849 24.197 46.748 33.55z" fill="#ffffff" data-original="#ffffff" className=""></path><path d="m169.107 384.888c-7.753 11.253-12.303 24.883-12.303 39.582 0 38.582 31.277 69.859 69.859 69.859s69.859-31.277 69.859-69.859c0-15.657-5.151-30.11-13.85-41.759-15.854-2.245-32.669-3.457-50.092-3.457-22.414 0-43.827 1.999-63.473 5.634z" fill="#0091c8" data-original="#0091c8"></path><path d="m229.686 368.651v99.344c24.536-1.728 43.908-22.166 43.908-47.142v-52.203h-43.908z" fill="#ffbe82" data-original="#ffbe82" className=""></path><path d="m231.044 467.648v-54.549c0-23.5 19.051-42.551 42.551-42.551v-46.793h-94.548v97.099c0 26.109 21.165 47.274 47.274 47.274 1.596 0 3.174-.082 4.73-.236-.002-.082-.007-.162-.007-.244z" fill="#ff965a" data-original="#ff965a" className=""></path><path d="m307.295 339.855c18.958 0 37.075-8.265 49.166-22.866 20.64-24.925 28.713-59.432 18.474-92.67l-61.369-199.212-94.706 29.175c-5.347 1.647-10.5 3.625-15.451 5.895v279.677h103.886z" fill="#ffbe82" data-original="#ffbe82" className=""></path><path d="m226.283 172.973c.11-.036.221-.071.331-.105.149-.047.299-.093.449-.139l76.624-23.605c15.65-4.821 29.48-12.759 41.023-22.92l-30.101-97.712s-77.148 22.664-103.536 29.965c-21.579 5.971-30.607 16.543-32.402 16.335-1.015-.118-2.003.521-2.109 1.537-.194 1.844-6.911 4.781-18.498 19.279-25.224 31.523-34.425 74.405-21.911 115.026l45.26 146.919 8.532 27.696 119.303-36.753c19.761-6.088 36.249-17.78 48.263-32.793l-63.144 19.452c-24.644 7.592-50.777-6.232-58.369-30.876l-16.265-52.799c-.35-1.136.287-2.342 1.424-2.692.921-.284 1.904.089 2.441.89 11.355 16.967 32.879 25.253 53.392 18.934l49.637-15.291 30.162-9.292 21.245-6.545c-.726-4.394-1.75-8.791-3.097-13.166l-23.963-77.786-22.12 6.814-30.162 9.292-49.637 15.291c-17.307 5.332-29.357 19.664-32.605 36.276l-9.364-3.785c-4.816-15.622 3.64-32.426 19.197-37.447z" fill="#ff965a" data-original="#ff965a" className=""></path><path d="m375.015 0-262.478 80.859c-.098.03-.196.061-.294.092-13.518 4.271-22.553 17.026-22.553 31.203l-.009 15.385c-.018 32.545 5.975 64.803 17.631 95.189 20.667 53.877 55.345 131.449 81.131 123.505l-22.346-72.537c-3.223-10.461-4.395-21.064-3.748-31.378.416-6.626 9.732-7.715 11.686-1.371l8.836 28.683c14.601-4.498 22.792-19.981 18.294-34.583l-5.34-17.334c-6.98-22.658 5.538-46.87 28.173-53.924.094-.029.188-.059.283-.088l76.624-23.605c59.153-18.221 92.332-80.945 74.11-140.096z" fill="#783c28" data-original="#783c28" className=""></path><g fill="#5a2d19"><path d="m334.469 109.491-76.624 23.605c-.15.046-.299.093-.448.139-14.162 4.444-24.317 15.642-28.197 28.952l71.707-22.09c24.141-7.437 43.954-22.289 57.714-41.283-7.447 4.405-15.521 8.018-24.152 10.677z" fill="#5a2d19" data-original="#5a2d19" className=""></path><path d="m129.286 266.58-35.166-114.153c-6.322-20.522 4.518-42.228 24.344-49.697l-.046-.148c-2.438-7.914-2.401-15.996-.349-23.428l-5.532 1.704c-22.094 6.806-34.488 30.235-27.681 52.329l.046.148c-19.826 7.469-30.666 29.175-24.344 49.697l35.166 114.153c12.06 39.148 53.572 61.107 92.72 49.047l-9.359-30.38c-22.972-6.834-42.213-24.648-49.799-49.272z" fill="#5a2d19" data-original="#5a2d19" className=""></path></g><path d="m140.764 269.292c5.872 19.062 24.647 30.594 43.785 27.963 3.437-.473 5.619-3.943 4.597-7.259l-20.038-65.044c-1.021-3.316-4.778-4.957-7.885-3.414-17.3 8.593-26.331 28.691-20.459 47.754z" fill="#ff965a" data-original="#ff965a" className=""></path><path d="m167.608 252.745-1.494-4.85c-.548-1.78-2.607-2.562-4.225-1.638-6.432 3.677-9.693 11.437-7.421 18.813 2.538 8.239 11.053 12.968 19.318 10.936 1.956-.392 3.903-1.436 5.594-3.292.771-.846 1.315-1.894 1.565-3.011 1.407-6.266-2.51-10.984-7.368-11.839-2.798-.491-5.133-2.404-5.969-5.119z" fill="#ffbe82" data-original="#ffbe82" className=""></path><path d="m244.22 249.118 34.681 1.33 55.912-17.429-23.27-84.029-65.216 20.091c-13.073 4.027-23.139 13.194-28.687 24.594v23.442c0 12.418 6.911 23.759 17.866 29.607.075.04.149.08.222.12 2.61 1.413 5.527 2.16 8.492 2.274z" fill="#927e8f" data-original="#927e8f"></path><g><path d="m280.851 245.882c-25.041 7.714-51.595-6.332-59.309-31.373-2.821-9.158-2.721-18.515-.248-27.083-7.983 11.55-10.795 26.505-6.341 40.964 7.714 25.041 34.268 39.087 59.309 31.373l79.799-24.583-3.335-10.825z" fill="#695a6e" data-original="#695a6e"></path></g><g><path d="m403.223 220.035-99.971 30.797c-13.9 4.282-28.64-3.515-32.923-17.415l-12.428-40.344c-4.282-13.9 3.515-28.64 17.415-32.923l99.971-30.797z" fill="#695a6e" data-original="#695a6e"></path></g><path d="m233.148 240.832c-3.228.994-6.651-.816-7.646-4.045l-8.083-26.239c-.994-3.228.816-6.651 4.045-7.646 3.228-.994 6.651.816 7.646 4.045l8.083 26.239c.994 3.228-.817 6.651-4.045 7.646z" fill="#695a6e" data-original="#695a6e"></path><path d="m390.259 214.347 28.944-15.827-11.256-36.537-33.928-32.239-64.407 19.841v72.74z" fill="#453d49" data-original="#453d49" className=""></path><path d="m357.903 217.404c-13.901 4.282-28.641-3.515-32.923-17.415l-12.428-40.344c-1.097-3.56-1.396-7.174-1.009-10.654l-15.579 4.799c-13.9 4.282-21.698 19.022-17.415 32.923l12.428 40.344c4.282 13.9 19.022 21.698 32.923 17.415l12.977-3.998 24.069-12.398 25.765-2.954 37.16-11.447-4.668-15.154z" fill="#2b282d" data-original="#2b282d" className=""></path><path d="m112.67 266.234 116.433-41.278-5.763-18.708-118.698 36.566z" fill="#594d5e" data-original="#594d5e"></path><path d="m106.802 242.149-32.747 10.088 9.379 30.445 149.285-45.989-3.616-11.737-97.83 30.137c-10.332 3.184-21.288-2.612-24.471-12.944z" fill="#453d49" data-original="#453d49" className=""></path><ellipse cx="355.669" cy="272.363" fill="#ff965a" rx="13.365" ry="21.813" transform="matrix(.956 -.294 .294 .956 -64.423 116.783)" data-original="#ff965a" className=""></ellipse><path d="m370.735 151.153c-8.692 4.1-28.324 16.548-16.614 36.093s-8.375 17.827-20.359 29.696c-7.482 7.41-2.034 17.212 3.115 23.531l49.834-15.352c-1.62-4.637-1.51-9.561 2.699-13.73 11.984-11.869 32.069-10.15 20.359-29.696-4.613-7.7-4.352-14.293-1.822-19.713l-12.012-38.991-21.917 6.752c7.601 7.852 3.746 18.095-3.283 21.41z" fill="#695a6e" data-original="#695a6e"></path></g></g></svg>